<svg width="41" height="41" viewBox="0 0 41 41" fill="none" xmlns="http://www.w3.org/2000/svg">
<g clip-path="url(#clip0_1151_174)">
<path d="M6.60049 28.111C5.13482 22.2483 4.402 19.317 5.94092 17.3461C7.47984 15.375 10.5014 15.375 16.5445 15.375H24.4552C30.4983 15.375 33.5198 15.375 35.0587 17.3461C36.5977 19.317 35.8648 22.2483 34.3992 28.111C33.467 31.8397 33.0008 33.704 31.6107 34.7895C30.2205 35.875 28.2988 35.875 24.4552 35.875H16.5445C12.7009 35.875 10.7792 35.875 9.38898 34.7895C7.99878 33.704 7.53267 31.8397 6.60049 28.111Z" stroke="#4F6D40" stroke-width="1.5"/>
<path d="M33.3125 16.2292L32.0989 11.7784C31.631 10.0622 31.3969 9.20411 30.9171 8.55787C30.4391 7.91429 29.7896 7.41821 29.043 7.12639C28.2932 6.83337 27.4039 6.83337 25.625 6.83337M7.6875 16.2292L8.9011 11.7784C9.36905 10.0622 9.60302 9.20411 10.0829 8.55787C10.5609 7.91429 11.2104 7.41821 11.957 7.12639C12.7067 6.83337 13.5961 6.83337 15.375 6.83337" stroke="#4F6D40" stroke-width="1.5"/>
<path d="M15.375 6.83333C15.375 5.88986 16.1399 5.125 17.0833 5.125H23.9167C24.8602 5.125 25.625 5.88986 25.625 6.83333C25.625 7.77681 24.8602 8.54167 23.9167 8.54167H17.0833C16.1399 8.54167 15.375 7.77681 15.375 6.83333Z" stroke="#4F6D40" stroke-width="1.5"/>
</g>
<defs>
<clipPath id="clip0_1151_174">
<rect width="41" height="41" fill="white"/>
</clipPath>
</defs>
</svg>
