<svg width="41" height="42" viewBox="0 0 41 42" fill="none" xmlns="http://www.w3.org/2000/svg">
<path d="M29.8698 33.465L21.803 28.996C24.8012 26.6372 25.616 22.0016 25.616 19.402V13.9913C25.616 10.4089 20.8562 6.41906 16.0746 6.41906C11.2955 6.41906 6.40881 10.4089 6.40881 13.9913V19.402C6.40881 21.7659 7.40819 26.5462 10.4371 28.9755L2.16275 33.4637C2.16275 33.4637 0 34.4272 0 35.6277V38.8744C0 40.0698 0.969906 41.0384 2.16275 41.0384H29.8698C31.0626 41.0384 32.0325 40.0685 32.0325 38.8744V35.6277C32.0325 34.3542 29.8685 33.4637 29.8685 33.4637L29.8698 33.465ZM29.47 38.4785H2.5625V36.1876C2.74572 36.0531 3.00325 35.8981 3.20569 35.8058C3.26591 35.7789 3.32613 35.7494 3.38378 35.7161L11.6594 31.2279C12.414 30.8179 12.9137 30.0594 12.9906 29.2048C13.0675 28.3502 12.71 27.5136 12.0412 26.9767C9.89253 25.2534 8.97131 21.4392 8.97131 19.4032V13.9925C8.97131 12.1514 12.4409 8.98284 16.0746 8.98284C19.7761 8.98284 23.0535 12.1091 23.0535 13.9925V19.4032C23.0535 21.4097 22.4308 25.2419 20.2194 26.9818C19.5429 27.5148 19.1777 28.3528 19.2495 29.2099C19.3213 30.0671 19.8209 30.8333 20.5756 31.2458L28.6423 35.7148C28.7128 35.7533 28.8038 35.7956 28.8781 35.8289C29.0677 35.9096 29.2996 36.0428 29.47 36.1607V38.4785ZM38.8372 27.0856L30.6501 22.6166C33.6482 20.2578 34.5835 15.6223 34.5835 13.0226V7.61191C34.5835 4.02953 29.7045 0 24.9229 0C21.8158 0 18.6396 1.68997 16.7908 3.85272C17.8452 3.91806 19.0073 3.91934 20.0118 4.23966C21.3623 3.18775 23.0689 2.56378 24.9229 2.56378C28.6244 2.56378 32.021 5.72847 32.021 7.61319V13.0239C32.021 15.0303 31.2779 18.8626 29.0677 20.6025C28.3899 21.1355 28.0261 21.9734 28.0978 22.8306C28.1696 23.689 28.668 24.4539 29.4239 24.8665L37.6111 29.3355C37.6816 29.3739 37.7725 29.4162 37.8468 29.4495C38.0365 29.5303 38.2684 29.6635 38.4388 29.7814V32.0607H33.2664C34.0479 32.6501 34.2837 33.4932 34.5873 34.6232H38.8398C40.0327 34.6232 41.0026 33.6533 41.0026 32.4592V29.2522C41.0013 27.9774 38.8372 27.0856 38.8372 27.0856Z" fill="#3D3D3D"/>
</svg>
