<svg width="21" height="23" viewBox="0 0 21 23" fill="none" xmlns="http://www.w3.org/2000/svg">
<path d="M19.2539 21.1522L14.6549 16.0623M14.6549 16.0623C15.393 15.2453 15.9786 14.2754 16.3781 13.208C16.7775 12.1406 16.9832 10.9966 16.9832 9.84126C16.9832 8.68592 16.7775 7.54189 16.3781 6.47449C15.9786 5.40709 15.393 4.43723 14.6549 3.62027C13.9167 2.80332 13.0404 2.15528 12.0759 1.71315C11.1115 1.27102 10.0778 1.04346 9.03388 1.04346C7.98996 1.04346 6.95627 1.27102 5.99182 1.71315C5.02737 2.15528 4.15104 2.80332 3.41289 3.62028C1.92211 5.27018 1.08459 7.50794 1.08459 9.84126C1.08459 12.1746 1.92211 14.4123 3.41289 16.0623C4.90366 17.7122 6.9256 18.6391 9.03388 18.6391C11.1422 18.6391 13.1641 17.7122 14.6549 16.0623Z" stroke="#3D3D3D" stroke-width="2" stroke-linecap="round" stroke-linejoin="round"/>
</svg>
