<svg width="41" height="41" viewBox="0 0 41 41" fill="none" xmlns="http://www.w3.org/2000/svg">
<path d="M2.13544 17.9375C2.13544 18.6451 2.70908 19.2187 3.41669 19.2187C4.1243 19.2187 4.69794 18.6451 4.69794 17.9375H2.13544ZM5.2506 26.6951C4.97981 26.0413 4.23032 25.7309 3.57657 26.0016C2.92283 26.2724 2.61237 27.0219 2.88316 27.6756L5.2506 26.6951ZM23.459 37.1899L24.3851 35.6254L22.1798 34.32L21.2537 35.8847L23.459 37.1899ZM16.6149 35.6254L17.541 37.1899L19.7461 35.8847L18.82 34.32L16.6149 35.6254ZM21.2537 35.8847C20.9245 36.4409 20.0755 36.4409 19.7461 35.8847L17.541 37.1899C18.8626 39.4227 22.1375 39.4227 23.459 37.1899L21.2537 35.8847ZM17.9375 4.69788H23.0625V2.13538H17.9375V4.69788ZM36.3021 17.9375V19.6458H38.8646V17.9375H36.3021ZM13.3293 31.1627C11.1846 31.1256 10.0608 30.9893 9.1799 30.6244L8.19929 32.9918C9.57444 33.5614 11.1407 33.6878 13.2851 33.7247L13.3293 31.1627ZM2.88316 27.6756C3.88012 30.0825 5.7924 31.9948 8.19929 32.9918L9.1799 30.6244C7.4009 29.8874 5.98749 28.4741 5.2506 26.6951L2.88316 27.6756ZM36.3021 19.6458C36.3021 21.6533 36.3014 23.0947 36.2239 24.2322C36.147 25.3581 35.999 26.0924 35.7495 26.6951L38.1169 27.6756C38.5175 26.7087 38.6946 25.6631 38.7804 24.4066C38.8653 23.1617 38.8646 21.6182 38.8646 19.6458H36.3021ZM27.7148 33.7247C29.8593 33.6878 31.4257 33.5614 32.8007 32.9918L31.8201 30.6244C30.9393 30.9893 29.8154 31.1256 27.6707 31.1627L27.7148 33.7247ZM35.7495 26.6951C35.0125 28.4741 33.5992 29.8874 31.8201 30.6244L32.8007 32.9918C35.2076 31.9948 37.1199 30.0825 38.1169 27.6756L35.7495 26.6951ZM23.0625 4.69788C25.8833 4.69788 27.9091 4.69923 29.4891 4.84946C31.0502 4.99788 32.0434 5.28252 32.8352 5.76777L34.1742 3.58288C32.9119 2.80943 31.4802 2.46473 29.7317 2.29847C28.0022 2.13403 25.8338 2.13538 23.0625 2.13538V4.69788ZM38.8646 17.9375C38.8646 15.1662 38.866 12.9978 38.7015 11.2683C38.5352 9.51975 38.1905 8.08798 37.4171 6.82583L35.2322 8.16473C35.7175 8.9566 36.0021 9.94987 36.1506 11.5109C36.3007 13.0909 36.3021 15.1166 36.3021 17.9375H38.8646ZM32.8352 5.76777C33.8122 6.36644 34.6336 7.18781 35.2322 8.16473L37.4171 6.82583C36.6072 5.50411 35.4959 4.39284 34.1742 3.58288L32.8352 5.76777ZM17.9375 2.13538C15.1663 2.13538 12.9979 2.13403 11.2684 2.29847C9.51981 2.46473 8.08804 2.80943 6.82589 3.58288L8.16479 5.76777C8.95666 5.28252 9.94993 4.99788 11.5109 4.84946C13.091 4.69923 15.1167 4.69788 17.9375 4.69788V2.13538ZM4.69794 17.9375C4.69794 15.1166 4.69929 13.0909 4.84952 11.5109C4.99794 9.94987 5.28258 8.9566 5.76783 8.16473L3.58294 6.82583C2.80949 8.08798 2.46479 9.51975 2.29853 11.2683C2.13409 12.9978 2.13544 15.1662 2.13544 17.9375H4.69794ZM6.82589 3.58288C5.50417 4.39284 4.3929 5.50411 3.58294 6.82583L5.76783 8.16473C6.3665 7.18781 7.18787 6.36644 8.16479 5.76777L6.82589 3.58288ZM18.82 34.32C18.4733 33.7341 18.1688 33.217 17.8728 32.8107C17.5608 32.383 17.2033 31.9977 16.7073 31.7092L15.419 33.9244C15.5 33.9714 15.6103 34.0573 15.8018 34.32C16.0092 34.6046 16.2435 34.9977 16.6149 35.6254L18.82 34.32ZM13.2851 33.7247C14.0353 33.7377 14.5104 33.7472 14.8726 33.7872C15.211 33.8248 15.3422 33.8796 15.419 33.9244L16.7073 31.7092C16.2071 31.4183 15.6867 31.2992 15.1546 31.2403C14.6462 31.184 14.0318 31.1748 13.3293 31.1627L13.2851 33.7247ZM24.3851 35.6254C24.7565 34.9977 24.9907 34.6046 25.1981 34.32C25.3896 34.0573 25.5 33.9714 25.5809 33.9244L24.2927 31.7092C23.7968 31.9977 23.439 32.383 23.1273 32.8107C22.8312 33.217 22.5268 33.7341 22.1798 34.32L24.3851 35.6254ZM27.6707 31.1627C26.9681 31.1748 26.3538 31.184 25.8454 31.2403C25.3132 31.2992 24.7929 31.4183 24.2927 31.7092L25.5809 33.9244C25.6578 33.8796 25.789 33.8248 26.1274 33.7872C26.4896 33.7472 26.9647 33.7377 27.7148 33.7247L27.6707 31.1627Z" fill="#3D3D3D"/>
<path d="M13.6667 18.7916H13.6821M20.4846 18.7916H20.5M27.318 18.7916H27.3334" stroke="#3D3D3D" stroke-width="2" stroke-linecap="round" stroke-linejoin="round"/>
</svg>
