<svg width="41" height="41" viewBox="0 0 41 41" fill="none" xmlns="http://www.w3.org/2000/svg">
<path d="M2.1355 17.9375C2.1355 18.6451 2.70914 19.2187 3.41675 19.2187C4.12436 19.2187 4.698 18.6451 4.698 17.9375H2.1355ZM5.25066 26.6951C4.97987 26.0413 4.23038 25.7309 3.57663 26.0016C2.92289 26.2724 2.61243 27.0219 2.88322 27.6756L5.25066 26.6951ZM23.4591 37.1899L24.3852 35.6254L22.1799 34.32L21.2538 35.8847L23.4591 37.1899ZM16.615 35.6254L17.5411 37.1899L19.7462 35.8847L18.8201 34.32L16.615 35.6254ZM21.2538 35.8847C20.9246 36.4409 20.0756 36.4409 19.7462 35.8847L17.5411 37.1899C18.8626 39.4227 22.1375 39.4227 23.4591 37.1899L21.2538 35.8847ZM17.9376 4.69788H23.0626V2.13538H17.9376V4.69788ZM36.3022 17.9375V19.6458H38.8647V17.9375H36.3022ZM13.3294 31.1627C11.1846 31.1256 10.0608 30.9893 9.17996 30.6244L8.19935 32.9918C9.5745 33.5614 11.1408 33.6878 13.2852 33.7247L13.3294 31.1627ZM2.88322 27.6756C3.88019 30.0825 5.79246 31.9948 8.19935 32.9918L9.17996 30.6244C7.40096 29.8874 5.98755 28.4741 5.25066 26.6951L2.88322 27.6756ZM36.3022 19.6458C36.3022 21.6533 36.3015 23.0947 36.2239 24.2322C36.147 25.3581 35.9991 26.0924 35.7495 26.6951L38.1169 27.6756C38.5175 26.7087 38.6947 25.6631 38.7804 24.4066C38.8653 23.1617 38.8647 21.6182 38.8647 19.6458H36.3022ZM27.7149 33.7247C29.8594 33.6878 31.4257 33.5614 32.8008 32.9918L31.8202 30.6244C30.9394 30.9893 29.8155 31.1256 27.6708 31.1627L27.7149 33.7247ZM35.7495 26.6951C35.0125 28.4741 33.5992 29.8874 31.8202 30.6244L32.8008 32.9918C35.2076 31.9948 37.1199 30.0825 38.1169 27.6756L35.7495 26.6951ZM23.0626 4.69788C25.8834 4.69788 27.9091 4.69923 29.4892 4.84946C31.0502 4.99788 32.0435 5.28252 32.8353 5.76777L34.1743 3.58288C32.912 2.80943 31.4802 2.46473 29.7317 2.29847C28.0022 2.13403 25.8338 2.13538 23.0626 2.13538V4.69788ZM38.8647 17.9375C38.8647 15.1662 38.866 12.9978 38.7015 11.2683C38.5353 9.51975 38.1906 8.08798 37.4172 6.82583L35.2322 8.16473C35.7176 8.9566 36.0022 9.94987 36.1506 11.5109C36.3008 13.0909 36.3022 15.1166 36.3022 17.9375H38.8647ZM32.8353 5.76777C33.8123 6.36644 34.6336 7.18781 35.2322 8.16473L37.4172 6.82583C36.6073 5.50411 35.496 4.39284 34.1743 3.58288L32.8353 5.76777ZM17.9376 2.13538C15.1663 2.13538 12.9979 2.13403 11.2684 2.29847C9.51987 2.46473 8.0881 2.80943 6.82595 3.58288L8.16486 5.76777C8.95672 5.28252 9.95 4.99788 11.511 4.84946C13.091 4.69923 15.1167 4.69788 17.9376 4.69788V2.13538ZM4.698 17.9375C4.698 15.1166 4.69935 13.0909 4.84958 11.5109C4.998 9.94987 5.28264 8.9566 5.76789 8.16473L3.583 6.82583C2.80956 8.08798 2.46485 9.51975 2.29859 11.2683C2.13415 12.9978 2.1355 15.1662 2.1355 17.9375H4.698ZM6.82595 3.58288C5.50423 4.39284 4.39296 5.50411 3.583 6.82583L5.76789 8.16473C6.36656 7.18781 7.18793 6.36644 8.16486 5.76777L6.82595 3.58288ZM18.8201 34.32C18.4733 33.7341 18.1689 33.217 17.8728 32.8107C17.5609 32.383 17.2033 31.9977 16.7073 31.7092L15.419 33.9244C15.5 33.9714 15.6104 34.0573 15.8019 34.32C16.0092 34.6046 16.2435 34.9977 16.615 35.6254L18.8201 34.32ZM13.2852 33.7247C14.0353 33.7377 14.5104 33.7472 14.8726 33.7872C15.2111 33.8248 15.3422 33.8796 15.419 33.9244L16.7073 31.7092C16.2072 31.4183 15.6868 31.2992 15.1547 31.2403C14.6463 31.184 14.0319 31.1748 13.3294 31.1627L13.2852 33.7247ZM24.3852 35.6254C24.7566 34.9977 24.9908 34.6046 25.1982 34.32C25.3897 34.0573 25.5 33.9714 25.581 33.9244L24.2928 31.7092C23.7968 31.9977 23.4391 32.383 23.1273 32.8107C22.8313 33.217 22.5268 33.7341 22.1799 34.32L24.3852 35.6254ZM27.6708 31.1627C26.9682 31.1748 26.3539 31.184 25.8455 31.2403C25.3133 31.2992 24.793 31.4183 24.2928 31.7092L25.581 33.9244C25.6579 33.8796 25.7891 33.8248 26.1275 33.7872C26.4897 33.7472 26.9648 33.7377 27.7149 33.7247L27.6708 31.1627Z" fill="#4F6D40"/>
<path d="M13.6667 18.7916H13.6821M20.4847 18.7916H20.5001M27.318 18.7916H27.3334" stroke="#4F6D40" stroke-width="2" stroke-linecap="round" stroke-linejoin="round"/>
</svg>
