<svg width="41" height="41" viewBox="0 0 41 41" fill="none" xmlns="http://www.w3.org/2000/svg">
<circle cx="20.5" cy="20.5" r="20.5" fill="#4F6D40"/>
<path d="M21 19.8C17.368 19.8 16.632 14.296 16.632 14.296C16.2 11.432 17.512 8.19995 20.952 8.19995C24.408 8.19995 25.72 11.432 25.288 14.296C25.288 14.296 24.632 19.8 21 19.8ZM21 23.912L25.352 21C29.176 21 32.584 24.728 32.584 28.248V32.232C32.584 32.232 26.744 34.04 21 34.04C15.16 34.04 9.41602 32.232 9.41602 32.232V28.248C9.41602 24.648 12.52 21.08 16.568 21.08L21 23.912Z" fill="white"/>
</svg>
